<?xml version="1.0" standalone="no"?><svg xmlns="http://www.w3.org/2000/svg" viewBox="0 0 1440 320"><path fill="#ff5252" fill-opacity="1" d="M0,128L40,106.7C80,85,160,43,240,48C320,53,400,107,480,144C560,181,640,203,720,186.7C800,171,880,117,960,101.3C1040,85,1120,107,1200,122.7C1280,139,1360,149,1400,154.7L1440,160L1440,320L1400,320C1360,320,1280,320,1200,320C1120,320,1040,320,960,320C880,320,800,320,720,320C640,320,560,320,480,320C400,320,320,320,240,320C160,320,80,320,40,320L0,320Z"></path></svg>