<?xml version="1.0" standalone="no"?><svg xmlns="http://www.w3.org/2000/svg" viewBox="0 0 1440 320"><path fill="#ffffff" fill-opacity="1" d="M0,64L21.8,69.3C43.6,75,87,85,131,112C174.5,139,218,181,262,170.7C305.5,160,349,96,393,112C436.4,128,480,224,524,240C567.3,256,611,192,655,170.7C698.2,149,742,171,785,192C829.1,213,873,235,916,240C960,245,1004,235,1047,224C1090.9,213,1135,203,1178,208C1221.8,213,1265,235,1309,224C1352.7,213,1396,171,1418,149.3L1440,128L1440,320L1418.2,320C1396.4,320,1353,320,1309,320C1265.5,320,1222,320,1178,320C1134.5,320,1091,320,1047,320C1003.6,320,960,320,916,320C872.7,320,829,320,785,320C741.8,320,698,320,655,320C610.9,320,567,320,524,320C480,320,436,320,393,320C349.1,320,305,320,262,320C218.2,320,175,320,131,320C87.3,320,44,320,22,320L0,320Z"></path></svg>